HIERARCHY
ROOT Hips
{
	OFFSET 0.00000 0.00000 0.00000
	CHANNELS 6 Xposition Yposition Zposition Zrotation Yrotation Xrotation 
	JOINT LHipJoint
	{
		OFFSET 0 0 0
		CHANNELS 3 Zrotation Yrotation Xrotation
		JOINT LeftUpLeg
		{
			OFFSET 1.40252 -1.71424 0.59123
			CHANNELS 3 Zrotation Yrotation Xrotation
			JOINT LeftLeg
			{
				OFFSET 2.50071 -6.87065 0.00000
				CHANNELS 3 Zrotation Yrotation Xrotation
				JOINT LeftFoot
				{
					OFFSET 2.50834 -6.89162 0.00000
					CHANNELS 3 Zrotation Yrotation Xrotation
					JOINT LeftToeBase
					{
						OFFSET 0.21528 -0.59149 1.64448
						CHANNELS 3 Zrotation Yrotation Xrotation
						End Site
						{
							OFFSET 0.00000 -0.00000 0.87921
						}
					}
				}
			}
		}
	}
	JOINT RHipJoint
	{
		OFFSET 0 0 0
		CHANNELS 3 Zrotation Yrotation Xrotation
		JOINT RightUpLeg
		{
			OFFSET -1.53651 -1.71424 0.59123
			CHANNELS 3 Zrotation Yrotation Xrotation
			JOINT RightLeg
			{
				OFFSET -2.45783 -6.75285 0.00000
				CHANNELS 3 Zrotation Yrotation Xrotation
				JOINT RightFoot
				{
					OFFSET -2.51921 -6.92147 0.00000
					CHANNELS 3 Zrotation Yrotation Xrotation
					JOINT RightToeBase
					{
						OFFSET -0.21777 -0.59831 1.59676
						CHANNELS 3 Zrotation Yrotation Xrotation
						End Site
						{
							OFFSET -0.00000 -0.00000 0.85779
						}
					}
				}
			}
		}
	}
	JOINT LowerBack
	{
		OFFSET 0 0 0
		CHANNELS 3 Zrotation Yrotation Xrotation
		JOINT Spine
		{
			OFFSET 0.02212 2.07622 0.03776
			CHANNELS 3 Zrotation Yrotation Xrotation
			JOINT Spine1
			{
				OFFSET -0.00949 2.08009 -0.00123
				CHANNELS 3 Zrotation Yrotation Xrotation
				JOINT Neck
				{
					OFFSET 0 0 0
					CHANNELS 3 Zrotation Yrotation Xrotation
					JOINT Neck1
					{
						OFFSET 0.00288 1.67184 0.11155
						CHANNELS 3 Zrotation Yrotation Xrotation
						JOINT Head
						{
							OFFSET -0.02412 1.66997 -0.22040
							CHANNELS 3 Zrotation Yrotation Xrotation
							End Site
							{
								OFFSET -0.01026 1.69043 -0.08683
							}
						}
					}
				}
				JOINT LeftShoulder
				{
					OFFSET 0 0 0
					CHANNELS 3 Zrotation Yrotation Xrotation
					JOINT LeftArm
					{
						OFFSET 3.97941 0.74048 0.81462
						CHANNELS 3 Zrotation Yrotation Xrotation
						JOINT LeftForeArm
						{
							OFFSET 5.01834 -0.00000 -0.00000
							CHANNELS 3 Zrotation Yrotation Xrotation
							JOINT LeftHand
							{
								OFFSET 3.48690 -0.00000 0.00000
								CHANNELS 3 Zrotation Yrotation Xrotation
								JOINT LeftFingerBase
								{
									OFFSET 0 0 0
									CHANNELS 3 Zrotation Yrotation Xrotation
									JOINT LeftHandIndex1
									{
										OFFSET 0.76799 -0.00000 0.00000
										CHANNELS 3 Zrotation Yrotation Xrotation
										End Site
										{
											OFFSET 0.61917 -0.00000 0.00000
										}
									}
								}
								JOINT LThumb
								{
									OFFSET 0 0 0
									CHANNELS 3 Zrotation Yrotation Xrotation
									End Site
									{
										OFFSET 0.62863 -0.00000 0.62863
									}
								}
							}
						}
					}
				}
				JOINT RightShoulder
				{
					OFFSET 0 0 0
					CHANNELS 3 Zrotation Yrotation Xrotation
					JOINT RightArm
					{
						OFFSET -3.88702 1.02123 0.44091
						CHANNELS 3 Zrotation Yrotation Xrotation
						JOINT RightForeArm
						{
							OFFSET -4.70164 -0.00000 0.00000
							CHANNELS 3 Zrotation Yrotation Xrotation
							JOINT RightHand
							{
								OFFSET -3.49911 -0.00000 0.00000
								CHANNELS 3 Zrotation Yrotation Xrotation
								JOINT RightFingerBase
								{
									OFFSET 0 0 0
									CHANNELS 3 Zrotation Yrotation Xrotation
									JOINT RightHandIndex1
									{
										OFFSET -0.73933 -0.00000 0.00000
										CHANNELS 3 Zrotation Yrotation Xrotation
										End Site
										{
											OFFSET -0.59607 -0.00000 0.00000
										}
									}
								}
								JOINT RThumb
								{
									OFFSET 0 0 0
									CHANNELS 3 Zrotation Yrotation Xrotation
									End Site
									{
										OFFSET -0.60517 -0.00000 0.60517
									}
								}
							}
						}
					}
				}
			}
		}
	}
}
MOTION
Frames: 11
Frame Time: .0083333
3.4789 17.6736 1.2097 -367.7840 -536.7510 386.0740 0.0000 0.0000 0.0000 -0.5480 -15.0156 -52.1143 4.9775 13.3584 40.7252 -0.3240 -14.2547 -5.6082 1.5315 -7.8133 -22.1484 0.0000 0.0000 0.0000 7.9069 20.2764 -24.6130 -1.7565 -8.3392 23.7492 -0.3219 18.6440 -15.8145 -4.3015 -12.5512 37.7109 -3.6498 -9.5086 -28.9700 1.1509 -13.2101 -7.0875 -1.5352 -7.1058 8.6753 -6.4734 -5.7622 -8.3057 3.3203 -6.9078 20.7406 1.5508 -3.1909 8.1372 0.0000 0.0000 0.0000 -81.4052 1.6811 38.4115 127.3207 -54.0206 -91.6716 -0.0000 0.0000 -26.5400 -15.7823 48.0926 -11.8788 -7.1250 0.0000 -0.0000 -71.8245 64.3476 -43.1642 0.0000 0.0000 0.0000 18.4532 17.5930 -58.3225 -139.8556 48.1552 -101.4533 0.0000 0.0000 59.5550 -91.8174 -21.5258 94.9425 7.1250 -0.0000 -0.0000 -47.2904 51.6886 -71.1429
3.2279 17.6916 1.0434 -367.5590 -538.8170 385.4970 0.0000 0.0000 0.0000 1.5103 -16.7788 -50.1669 3.8984 12.0240 35.8170 -0.5642 -15.9479 -3.7623 1.3533 -7.3641 -20.7986 0.0000 0.0000 0.0000 7.2433 19.8967 -23.3444 -1.6305 -8.0500 22.8659 -0.1118 19.5466 -14.6847 -4.3730 -12.6408 38.0384 -2.4184 -8.8214 -28.0870 1.0232 -12.7065 -7.1824 -1.9611 -6.8810 7.8665 -6.1008 -5.8597 -8.1509 3.0598 -7.0933 20.1894 1.3892 -3.2970 7.9095 0.0000 0.0000 0.0000 -80.3432 4.5015 36.2172 128.1148 -53.7281 -92.3130 -0.0000 0.0000 -27.3098 -13.6821 49.9620 -10.5579 -7.1250 0.0000 -0.0000 -73.9311 65.7406 -47.0160 0.0000 0.0000 0.0000 25.4361 17.2070 -57.4163 -140.2871 47.8989 -101.7741 0.0000 0.0000 57.8956 -93.3411 -20.9979 99.2534 7.1250 -0.0000 -0.0000 -51.5593 54.1598 -76.6740
2.9797 17.6978 0.8762 -367.4880 -540.6120 384.6110 0.0000 0.0000 0.0000 3.1373 -18.9864 -48.0033 3.1497 10.9335 32.0560 -0.6313 -15.1455 -0.8200 1.0398 -6.4852 -18.1988 0.0000 0.0000 0.0000 6.6726 18.8827 -22.2433 -1.5931 -7.9615 22.5971 0.1216 20.4670 -13.4032 -4.5076 -12.8069 38.6499 -1.5739 -8.3200 -26.6209 0.9290 -12.2968 -7.3042 -2.1002 -6.7046 6.8416 -5.8294 -5.9082 -7.9713 2.9585 -7.2116 19.8182 1.3060 -3.3562 7.7443 -0.0000 0.0000 0.0000 -79.7250 7.1597 34.0601 128.6734 -53.5167 -92.7628 -0.0000 0.0000 -27.5376 -11.3378 51.3626 -8.9012 -7.1250 0.0000 -0.0000 -75.3096 66.9912 -49.9965 -0.0000 0.0000 0.0000 32.0406 16.8591 -56.2964 -140.3049 47.8882 -101.7873 0.0000 0.0000 56.0964 -95.9412 -20.3963 106.6257 7.1250 -0.0000 -0.0000 -60.1234 58.0396 -87.0026
2.7316 17.6966 0.7082 -367.4230 -542.3190 383.6590 0.0000 0.0000 0.0000 3.8077 -20.4661 -46.4441 2.7272 10.2397 29.7566 -0.7191 -15.3238 1.5087 0.7749 -5.6206 -15.6873 0.0000 0.0000 0.0000 6.1631 18.0258 -21.3281 -1.6388 -8.0693 22.9249 0.2856 20.9148 -12.3522 -4.6039 -12.9234 39.0823 -0.0373 -9.8205 -25.0890 1.0905 -11.3988 -7.4745 -2.0521 -4.8801 5.6645 -5.4997 -5.9171 -7.7456 2.8816 -7.2762 19.6118 1.2288 -3.3762 7.6215 -0.0000 -0.0000 0.0000 -79.3131 9.5638 32.0053 129.0146 -53.3853 -93.0369 -0.0000 0.0000 -27.2557 -10.5596 51.9003 -8.3456 -7.1250 0.0000 -0.0000 -76.0067 67.4226 -51.2286 -0.0000 -0.0000 0.0000 38.3516 16.3956 -55.0747 -140.1836 47.9608 -101.6972 0.0000 0.0000 54.1708 -98.1973 -20.0098 112.8305 7.1250 -0.0000 -0.0000 -68.8890 60.7467 -96.9394
2.4808 17.6943 0.5351 -367.3830 -544.1110 382.7090 0.0000 0.0000 0.0000 3.1523 -20.6779 -45.5392 2.5588 9.9440 28.7957 -0.9406 -17.0933 3.4402 0.8475 -5.8718 -16.4129 0.0000 0.0000 0.0000 5.6168 17.5062 -20.6365 -1.7706 -8.3709 23.8465 0.3789 20.9389 -11.5398 -4.6786 -13.0124 39.4150 0.4032 -9.2694 -23.4372 0.9637 -10.8556 -7.7212 -2.0141 -4.6929 4.4866 -5.4462 -5.9743 -7.1888 3.0070 -7.3947 19.5499 1.2670 -3.4162 7.5093 -0.0000 0.0000 0.0000 -78.9054 11.7940 30.1642 129.1325 -53.3394 -93.1315 -0.0000 0.0000 -26.3918 -11.9496 51.4836 -9.4023 -7.1250 0.0000 -0.0000 -75.9559 66.8341 -50.3929 -0.0000 0.0000 0.0000 44.3191 15.6708 -53.9211 -139.7161 48.2372 -101.3493 0.0000 0.0000 52.1655 -100.5854 -19.5434 119.1901 7.1250 -0.0000 -0.0000 -107.9365 -61.7156 79.8476
2.2198 17.6875 0.3522 -367.2640 -546.1050 381.6310 0.0000 0.0000 0.0000 2.3506 -20.8105 -44.3384 2.5264 9.8857 28.6074 -0.9977 -17.5831 3.5527 1.0429 -6.4946 -18.2264 0.0000 0.0000 0.0000 4.9685 17.1062 -20.3813 -2.0385 -8.9459 25.6263 0.5598 21.2653 -10.1565 -4.7395 -13.0842 39.6846 0.9412 -8.5428 -21.7553 0.7882 -10.0762 -7.9791 -2.0418 -4.3865 3.2652 -5.8330 -6.1237 -6.6474 3.3146 -7.5889 19.9191 1.4269 -3.4928 7.5723 -0.0000 0.0000 0.0000 -78.8017 13.8549 28.3893 129.1606 -53.3285 -93.1540 -0.0000 0.0000 -24.8629 -16.6696 50.2104 -12.9575 -7.1250 0.0000 -0.0000 -76.4193 64.8979 -48.1496 -0.0000 0.0000 0.0000 49.7139 14.8808 -53.0839 -138.7140 48.8136 -100.5984 0.0000 0.0000 50.3031 -102.6655 -19.3959 124.0861 7.1250 -0.0000 -0.0000 -115.1097 -60.7338 88.6630
1.9492 17.6734 0.1660 -366.9990 -548.1780 380.7290 0.0000 0.0000 0.0000 1.5714 -20.8348 -43.2002 2.6202 10.0532 29.1493 -0.8881 -16.9406 1.8084 1.7987 -8.4336 -24.0390 0.0000 0.0000 0.0000 4.2226 17.0167 -20.8900 -2.4833 -9.8075 28.3555 0.7453 21.4754 -8.5204 -4.7664 -13.1158 39.8036 1.4479 -7.9186 -20.3713 0.8575 -9.4246 -8.1417 -1.9081 -4.1300 2.3472 -5.9824 -6.1926 -6.4143 3.1971 -7.6201 20.3469 1.4160 -3.5129 7.6762 0.0000 0.0000 0.0000 -79.3879 15.5656 26.3497 129.2852 -53.2798 -93.2539 -0.0000 0.0000 -23.8312 -19.5351 49.0386 -14.9992 -7.1250 0.0000 -0.0000 -76.1795 63.5912 -46.0305 0.0000 0.0000 0.0000 54.5062 14.8818 -52.2847 -137.0975 49.6985 -99.3736 0.0000 0.0000 48.7115 -104.4650 -18.4384 129.2010 7.1250 -0.0000 -0.0000 -122.4135 -58.5541 97.2819
1.6743 17.6570 -0.0211 -366.6020 -550.1300 380.1760 0.0000 0.0000 0.0000 1.1543 -21.1320 -42.3091 2.8190 10.3962 30.2694 -0.7052 -15.7401 -0.2585 2.7392 -10.2604 -29.8242 0.0000 0.0000 0.0000 3.3682 16.2347 -22.5901 -3.1141 -10.8775 31.8679 1.0489 21.8373 -5.5481 -4.9252 -13.2990 40.4984 2.0492 -7.3767 -19.3392 1.1006 -8.8554 -8.3513 -1.7249 -3.8942 1.5671 -6.1058 -6.1949 -6.1895 2.9320 -7.5358 20.6942 1.3635 -3.4923 7.7429 0.0000 0.0000 0.0000 -80.2903 17.0392 24.4143 129.4137 -53.2292 -93.3569 -0.0000 0.0000 -23.4734 -21.0548 48.7603 -16.1444 -7.1250 0.0000 -0.0000 -76.7343 63.0314 -45.7167 0.0000 0.0000 0.0000 58.7765 15.1021 -51.4970 -134.9874 50.7746 -97.7515 0.0000 0.0000 46.3823 -106.0712 -16.9260 134.6987 7.1250 -0.0000 -0.0000 -129.2163 -55.2746 105.3348
1.3976 17.6398 -0.2121 -366.1580 -552.0750 379.8870 0.0000 0.0000 0.0000 0.7898 -21.4518 -41.4900 3.0871 10.8348 31.7247 -0.4814 -14.1143 -2.4287 3.5397 -11.5213 -34.0587 0.0000 0.0000 0.0000 2.3246 15.0572 -25.3114 -3.9887 -12.1453 36.2480 1.3670 22.0209 -1.2764 -5.2187 -13.6259 41.7592 2.6925 -6.7905 -18.7729 1.3506 -8.2161 -8.4594 -1.6224 -3.6106 1.1311 -6.3548 -6.2420 -5.9738 2.8472 -7.5456 20.8141 1.3814 -3.5188 7.7532 -0.0000 0.0000 0.0000 -81.1325 18.1177 22.8763 129.5920 -53.1587 -93.4997 -0.0000 0.0000 -23.9204 -20.5448 49.7287 -15.9579 -7.1250 0.0000 -0.0000 -78.1061 63.5383 -47.7799 -0.0000 0.0000 0.0000 62.7010 15.6685 -50.9813 -132.3965 51.9820 -95.7270 0.0000 0.0000 43.4382 -106.3882 -18.7532 132.4513 7.1250 -0.0000 -0.0000 -126.1024 -58.0759 102.4705
1.1170 17.6133 -0.4122 -365.5940 -554.1660 379.4760 0.0000 0.0000 0.0000 0.3295 -21.6798 -40.1691 3.2440 11.0800 32.5501 -0.2783 -12.6720 -4.5528 4.0900 -12.2792 -36.7269 0.0000 0.0000 0.0000 1.4137 13.7454 -28.4634 -5.1046 -13.5007 41.2728 1.4653 21.1733 3.9499 -5.5981 -14.0273 43.3467 3.4589 -6.1439 -17.9835 1.5668 -7.4927 -8.5997 -1.5971 -3.2937 0.5316 -6.5603 -6.2941 -5.4645 2.7686 -7.5891 20.6915 1.4014 -3.5631 7.6305 -0.0000 0.0000 0.0000 -81.7937 19.4040 21.7243 130.0256 -52.9852 -93.8463 -0.0000 0.0000 -25.1586 -17.8698 51.7825 -14.2144 -7.1250 0.0000 -0.0000 -80.2554 65.0443 -52.0651 -0.0000 0.0000 0.0000 65.9912 15.9128 -50.6838 -129.0904 53.3558 -93.0977 0.0000 0.0000 39.6415 -105.3498 -24.2440 123.7628 7.1250 -0.0000 -0.0000 -109.7736 -65.4071 86.3818
0.8374 17.5820 -0.6074 -365.0390 -556.0380 379.0440 0.0000 0.0000 0.0000 -0.1815 -22.0355 -38.6121 3.2952 11.1583 32.8155 -0.1009 -11.4066 -6.4233 4.5834 -12.8986 -38.9903 0.0000 0.0000 0.0000 0.6073 12.1871 -32.1294 -6.5213 -14.9152 47.0397 1.2179 19.1440 8.8626 -5.6091 -14.0386 43.3922 4.5620 -5.3883 -16.3837 1.4563 -6.5045 -9.3252 -1.9713 -2.8655 -1.1812 -6.4453 -6.5250 -4.2498 2.6341 -7.8990 20.7916 1.3517 -3.6962 7.4531 -0.0000 0.0000 0.0000 -81.8167 21.5124 21.1940 130.3268 -52.8628 -94.0866 -0.0000 0.0000 -26.0568 -16.8811 52.7216 -13.5751 -7.1250 0.0000 -0.0000 -81.5477 65.6329 -54.1822 -0.0000 0.0000 0.0000 68.9074 14.6627 -51.0110 -125.0672 54.8011 -89.8390 0.0000 0.0000 34.7103 -104.6912 -26.8186 120.1617 7.1250 -0.0000 -0.0000 -77.1842 67.4995 -99.8838
